<svg width="18" height="18" viewBox="0 0 18 18" fill="none" xmlns="http://www.w3.org/2000/svg">
<path fill-rule="evenodd" clip-rule="evenodd" d="M0.11867 17.2855C-0.0395567 17.449 -0.0395567 17.7139 0.11867 17.8774C0.276897 18.0408 0.533433 18.0408 0.69166 17.8774L8.99998 9.29592L17.3083 17.8774C17.4666 18.0408 17.7231 18.0408 17.8813 17.8774C18.0396 17.714 18.0396 17.449 17.8813 17.2856L9.57297 8.70409L17.3084 0.714398C17.4666 0.55097 17.4666 0.286 17.3084 0.122571C17.1501 -0.0408571 16.8936 -0.040857 16.7354 0.122571L8.99998 8.11226L1.26463 0.122609C1.1064 -0.0408194 0.849863 -0.0408194 0.691636 0.122609C0.53341 0.286037 0.53341 0.551007 0.691636 0.714436L8.42699 8.70409L0.11867 17.2855Z" fill="#333333"/>
</svg>
