<svg width="24" height="24" viewBox="0 0 24 24" fill="none" xmlns="http://www.w3.org/2000/svg">
<path fill-rule="evenodd" clip-rule="evenodd" d="M12 24C18.6274 24 24 18.6274 24 12C24 5.37258 18.6274 0 12 0C5.37258 0 0 5.37258 0 12C0 18.6274 5.37258 24 12 24ZM18.0755 9.61647L10.2279 17.7187L5.87037 13.22C5.81508 13.1643 5.65915 13.0042 5.56323 12.7252C5.50806 12.5648 5.47634 12.3625 5.52154 12.1377C5.56719 11.9107 5.68426 11.6959 5.87152 11.5025C6.05842 11.3096 6.27018 11.1846 6.4996 11.1355C6.72737 11.0866 6.93203 11.1212 7.0926 11.18C7.27754 11.2478 7.4502 11.3621 7.58439 11.5067L10.2279 14.236L16.3866 7.87756C16.5379 7.73658 16.7158 7.62755 16.9124 7.56221C17.0736 7.50866 17.2791 7.47591 17.5063 7.52186C17.7381 7.56871 17.9557 7.6901 18.1464 7.88692C18.3368 8.08351 18.452 8.30578 18.488 8.54222C18.5233 8.77423 18.4761 8.97907 18.4106 9.13641C18.2979 9.40698 18.1345 9.5615 18.0755 9.61647Z" fill="#333333"/>
</svg>
