<svg width="244" height="57" viewBox="0 0 244 57" fill="none" xmlns="http://www.w3.org/2000/svg">
<g filter="url(#filter0_d)">
<path d="M34.3672 13.2266H24.125V41H15.8984V13.2266H5.84375V6.875H34.3672V13.2266ZM31.625 28.0859C31.625 25.5547 32.1172 23.3047 33.1016 21.3359C34.0859 19.3516 35.5 17.8281 37.3438 16.7656C39.1875 15.7031 41.3516 15.1719 43.8359 15.1719C47.6328 15.1719 50.625 16.3516 52.8125 18.7109C55 21.0547 56.0938 24.25 56.0938 28.2969V28.5781C56.0938 32.5312 54.9922 35.6719 52.7891 38C50.6016 40.3125 47.6328 41.4688 43.8828 41.4688C40.2734 41.4688 37.375 40.3906 35.1875 38.2344C33 36.0625 31.8203 33.125 31.6484 29.4219L31.625 28.0859ZM39.5234 28.5781C39.5234 30.9219 39.8906 32.6406 40.625 33.7344C41.3594 34.8281 42.4453 35.375 43.8828 35.375C46.6953 35.375 48.1328 33.2109 48.1953 28.8828V28.0859C48.1953 23.5391 46.7422 21.2656 43.8359 21.2656C41.1953 21.2656 39.7656 23.2266 39.5469 27.1484L39.5234 28.5781ZM75.0078 29.3516H60.9219V23.2344H75.0078V29.3516ZM81.5469 41V6.875H92.5391C95.5547 6.875 98.2656 7.5625 100.672 8.9375C103.078 10.2969 104.953 12.2266 106.297 14.7266C107.656 17.2109 108.344 20 108.359 23.0938V24.6641C108.359 27.7891 107.695 30.5938 106.367 33.0781C105.055 35.5469 103.195 37.4844 100.789 38.8906C98.3984 40.2812 95.7266 40.9844 92.7734 41H81.5469ZM89.7734 13.2266V34.6719H92.6328C94.9922 34.6719 96.8047 33.8359 98.0703 32.1641C99.3359 30.4766 99.9688 27.9766 99.9688 24.6641V23.1875C99.9688 19.8906 99.3359 17.4062 98.0703 15.7344C96.8047 14.0625 94.9609 13.2266 92.5391 13.2266H89.7734ZM111.219 28.0859C111.219 25.5547 111.711 23.3047 112.695 21.3359C113.68 19.3516 115.094 17.8281 116.938 16.7656C118.781 15.7031 120.945 15.1719 123.43 15.1719C127.227 15.1719 130.219 16.3516 132.406 18.7109C134.594 21.0547 135.688 24.25 135.688 28.2969V28.5781C135.688 32.5312 134.586 35.6719 132.383 38C130.195 40.3125 127.227 41.4688 123.477 41.4688C119.867 41.4688 116.969 40.3906 114.781 38.2344C112.594 36.0625 111.414 33.125 111.242 29.4219L111.219 28.0859ZM119.117 28.5781C119.117 30.9219 119.484 32.6406 120.219 33.7344C120.953 34.8281 122.039 35.375 123.477 35.375C126.289 35.375 127.727 33.2109 127.789 28.8828V28.0859C127.789 23.5391 126.336 21.2656 123.43 21.2656C120.789 21.2656 119.359 23.2266 119.141 27.1484L119.117 28.5781ZM159.711 34.6719H174.031V41H151.484V6.875H159.711V34.6719ZM185.469 41H177.547V15.6406H185.469V41ZM177.078 9.10156C177.078 7.97656 177.484 7.05469 178.297 6.33594C179.109 5.61719 180.164 5.25781 181.461 5.25781C182.758 5.25781 183.812 5.61719 184.625 6.33594C185.438 7.05469 185.844 7.97656 185.844 9.10156C185.844 10.2266 185.438 11.1484 184.625 11.8672C183.812 12.5859 182.758 12.9453 181.461 12.9453C180.164 12.9453 179.109 12.5859 178.297 11.8672C177.484 11.1484 177.078 10.2266 177.078 9.10156ZM203.633 33.875C203.633 33.2031 203.281 32.6641 202.578 32.2578C201.875 31.8516 200.539 31.4297 198.57 30.9922C196.602 30.5547 194.977 29.9844 193.695 29.2812C192.414 28.5625 191.438 27.6953 190.766 26.6797C190.094 25.6641 189.758 24.5 189.758 23.1875C189.758 20.8594 190.719 18.9453 192.641 17.4453C194.562 15.9297 197.078 15.1719 200.188 15.1719C203.531 15.1719 206.219 15.9297 208.25 17.4453C210.281 18.9609 211.297 20.9531 211.297 23.4219H203.375C203.375 21.3906 202.305 20.375 200.164 20.375C199.336 20.375 198.641 20.6094 198.078 21.0781C197.516 21.5312 197.234 22.1016 197.234 22.7891C197.234 23.4922 197.578 24.0625 198.266 24.5C198.953 24.9375 200.047 25.2969 201.547 25.5781C203.062 25.8594 204.391 26.1953 205.531 26.5859C209.344 27.8984 211.25 30.25 211.25 33.6406C211.25 35.9531 210.219 37.8359 208.156 39.2891C206.109 40.7422 203.453 41.4688 200.188 41.4688C198.016 41.4688 196.078 41.0781 194.375 40.2969C192.672 39.5156 191.344 38.4531 190.391 37.1094C189.438 35.7656 188.961 34.3516 188.961 32.8672H196.344C196.375 34.0391 196.766 34.8984 197.516 35.4453C198.266 35.9766 199.227 36.2422 200.398 36.2422C201.477 36.2422 202.281 36.0234 202.812 35.5859C203.359 35.1484 203.633 34.5781 203.633 33.875ZM224.164 9.33594V15.6406H228.336V21.125H224.164V32.7266C224.164 33.6797 224.336 34.3438 224.68 34.7188C225.023 35.0938 225.703 35.2812 226.719 35.2812C227.5 35.2812 228.156 35.2344 228.688 35.1406V40.7891C227.266 41.2422 225.781 41.4688 224.234 41.4688C221.516 41.4688 219.508 40.8281 218.211 39.5469C216.914 38.2656 216.266 36.3203 216.266 33.7109V21.125H213.031V15.6406H216.266V9.33594H224.164Z" fill="#F2F2F2"/>
<path d="M34.3672 13.2266V14.2266H35.3672V13.2266H34.3672ZM24.125 13.2266V12.2266H23.125V13.2266H24.125ZM24.125 41V42H25.125V41H24.125ZM15.8984 41H14.8984V42H15.8984V41ZM15.8984 13.2266H16.8984V12.2266H15.8984V13.2266ZM5.84375 13.2266H4.84375V14.2266H5.84375V13.2266ZM5.84375 6.875V5.875H4.84375V6.875H5.84375ZM34.3672 6.875H35.3672V5.875H34.3672V6.875ZM34.3672 12.2266H24.125V14.2266H34.3672V12.2266ZM23.125 13.2266V41H25.125V13.2266H23.125ZM24.125 40H15.8984V42H24.125V40ZM16.8984 41V13.2266H14.8984V41H16.8984ZM15.8984 12.2266H5.84375V14.2266H15.8984V12.2266ZM6.84375 13.2266V6.875H4.84375V13.2266H6.84375ZM5.84375 7.875H34.3672V5.875H5.84375V7.875ZM33.3672 6.875V13.2266H35.3672V6.875H33.3672ZM31.625 28.0859H30.625V28.0947L30.6252 28.1035L31.625 28.0859ZM33.1016 21.3359L33.996 21.7832L33.9974 21.7803L33.1016 21.3359ZM52.8125 18.7109L52.0792 19.3908L52.0814 19.3933L52.8125 18.7109ZM52.7891 38L52.0627 37.3127L52.0626 37.3128L52.7891 38ZM35.1875 38.2344L34.4829 38.944L34.4855 38.9466L35.1875 38.2344ZM31.6484 29.4219L30.6486 29.4394L30.6488 29.4538L30.6495 29.4682L31.6484 29.4219ZM39.5234 28.5781L38.5236 28.5617L38.5234 28.5699V28.5781H39.5234ZM48.1953 28.8828L49.1952 28.8973L49.1953 28.89V28.8828H48.1953ZM39.5469 27.1484L38.5484 27.0927L38.5473 27.1124L38.547 27.132L39.5469 27.1484ZM32.625 28.0859C32.625 25.6866 33.0908 23.5936 33.996 21.7832L32.2071 20.8887C31.1436 23.0158 30.625 25.4228 30.625 28.0859H32.625ZM33.9974 21.7803C34.8979 19.965 36.1775 18.5919 37.843 17.6321L36.8445 15.8992C34.8225 17.0644 33.274 18.7381 32.2057 20.8915L33.9974 21.7803ZM37.843 17.6321C39.5112 16.6708 41.4972 16.1719 43.8359 16.1719V14.1719C41.2059 14.1719 38.8638 14.7355 36.8445 15.8992L37.843 17.6321ZM43.8359 16.1719C47.4091 16.1719 50.1151 17.2724 52.0792 19.3908L53.5458 18.031C51.1349 15.4307 47.8566 14.1719 43.8359 14.1719V16.1719ZM52.0814 19.3933C54.0541 21.5068 55.0938 24.4341 55.0938 28.2969H57.0938C57.0938 24.0659 55.9459 20.6026 53.5436 18.0286L52.0814 19.3933ZM55.0938 28.2969V28.5781H57.0938V28.2969H55.0938ZM55.0938 28.5781C55.0938 32.3383 54.0513 35.2113 52.0627 37.3127L53.5154 38.6873C55.9331 36.1325 57.0938 32.7242 57.0938 28.5781H55.0938ZM52.0626 37.3128C50.0976 39.39 47.4111 40.4688 43.8828 40.4688V42.4688C47.8545 42.4688 51.1055 41.235 53.5155 38.6872L52.0626 37.3128ZM43.8828 40.4688C40.4867 40.4688 37.8574 39.462 35.8895 37.5222L34.4855 38.9466C36.8926 41.3193 40.0602 42.4688 43.8828 42.4688V40.4688ZM35.8921 37.5247C33.9169 35.5637 32.8101 32.882 32.6474 29.3755L30.6495 29.4682C30.8305 33.368 32.0831 36.5613 34.4829 38.944L35.8921 37.5247ZM32.6483 29.4043L32.6248 28.0684L30.6252 28.1035L30.6486 29.4394L32.6483 29.4043ZM38.5234 28.5781C38.5234 30.9853 38.8929 32.9486 39.7948 34.2918L41.4552 33.1769C40.8884 32.3327 40.5234 30.8585 40.5234 28.5781H38.5234ZM39.7948 34.2918C40.734 35.6907 42.148 36.375 43.8828 36.375V34.375C42.7426 34.375 41.9847 33.9656 41.4552 33.1769L39.7948 34.2918ZM43.8828 36.375C45.5912 36.375 46.9818 35.6926 47.9033 34.3053C48.7775 32.9891 49.1628 31.1387 49.1952 28.8973L47.1954 28.8684C47.1653 30.955 46.8006 32.3507 46.2373 33.1986C45.7214 33.9754 44.9869 34.375 43.8828 34.375V36.375ZM49.1953 28.8828V28.0859H47.1953V28.8828H49.1953ZM49.1953 28.0859C49.1953 25.7381 48.826 23.8056 47.9481 22.4321C47.0214 20.9824 45.5988 20.2656 43.8359 20.2656V22.2656C44.9794 22.2656 45.7364 22.6856 46.2629 23.5093C46.8381 24.4092 47.1953 25.8869 47.1953 28.0859H49.1953ZM43.8359 20.2656C42.2289 20.2656 40.8968 20.8832 39.9752 22.1472C39.0965 23.3524 38.6625 25.0474 38.5484 27.0927L40.5453 27.2041C40.65 25.3276 41.0402 24.0812 41.5912 23.3255C42.0993 22.6286 42.8024 22.2656 43.8359 22.2656V20.2656ZM38.547 27.132L38.5236 28.5617L40.5233 28.5945L40.5467 27.1648L38.547 27.132ZM75.0078 29.3516V30.3516H76.0078V29.3516H75.0078ZM60.9219 29.3516H59.9219V30.3516H60.9219V29.3516ZM60.9219 23.2344V22.2344H59.9219V23.2344H60.9219ZM75.0078 23.2344H76.0078V22.2344H75.0078V23.2344ZM75.0078 28.3516H60.9219V30.3516H75.0078V28.3516ZM61.9219 29.3516V23.2344H59.9219V29.3516H61.9219ZM60.9219 24.2344H75.0078V22.2344H60.9219V24.2344ZM74.0078 23.2344V29.3516H76.0078V23.2344H74.0078ZM81.5469 41H80.5469V42H81.5469V41ZM81.5469 6.875V5.875H80.5469V6.875H81.5469ZM100.672 8.9375L100.176 9.80575L100.18 9.80817L100.672 8.9375ZM106.297 14.7266L105.416 15.2L105.42 15.2066L106.297 14.7266ZM108.359 23.0938L109.359 23.0938L109.359 23.0887L108.359 23.0938ZM106.367 33.0781L105.485 32.6067L105.484 32.6087L106.367 33.0781ZM100.789 38.8906L101.292 39.755L101.294 39.754L100.789 38.8906ZM92.7734 41L92.7734 42L92.7787 42L92.7734 41ZM89.7734 13.2266V12.2266H88.7734V13.2266H89.7734ZM89.7734 34.6719H88.7734V35.6719H89.7734V34.6719ZM98.0703 32.1641L98.8676 32.7676L98.8703 32.7641L98.0703 32.1641ZM82.5469 41V6.875H80.5469V41H82.5469ZM81.5469 7.875H92.5391V5.875H81.5469V7.875ZM92.5391 7.875C95.3964 7.875 97.9337 8.52459 100.176 9.80574L101.168 8.06926C98.5975 6.60041 95.7129 5.875 92.5391 5.875V7.875ZM100.18 9.80817C102.417 11.0719 104.159 12.8618 105.416 15.2L107.178 14.2531C105.747 11.5913 103.739 9.5218 101.164 8.06683L100.18 9.80817ZM105.42 15.2066C106.692 17.5321 107.345 20.1554 107.359 23.0988L109.359 23.0887C109.343 19.8446 108.62 16.8898 107.174 14.2466L105.42 15.2066ZM107.359 23.0938V24.6641H109.359V23.0938H107.359ZM107.359 24.6641C107.359 27.6429 106.728 30.2827 105.485 32.6067L107.249 33.5496C108.663 30.9048 109.359 27.9352 109.359 24.6641H107.359ZM105.484 32.6087C104.259 34.9141 102.53 36.715 100.284 38.0273L101.294 39.754C103.861 38.2538 105.851 36.1796 107.25 33.5476L105.484 32.6087ZM100.286 38.0262C98.057 39.323 95.5587 39.9852 92.7681 40L92.7787 42C95.8944 41.9835 98.7399 41.2395 101.292 39.755L100.286 38.0262ZM92.7734 40H81.5469V42H92.7734V40ZM88.7734 13.2266V34.6719H90.7734V13.2266H88.7734ZM89.7734 35.6719H92.6328V33.6719H89.7734V35.6719ZM92.6328 35.6719C95.2605 35.6719 97.3874 34.7229 98.8676 32.7676L97.273 31.5605C96.2219 32.9489 94.7239 33.6719 92.6328 33.6719V35.6719ZM98.8703 32.7641C100.321 30.8297 100.969 28.0778 100.969 24.6641H98.9688C98.9688 27.8754 98.3508 30.1234 97.2703 31.5641L98.8703 32.7641ZM100.969 24.6641V23.1875H98.9688V24.6641H100.969ZM100.969 23.1875C100.969 19.7892 100.321 17.0507 98.8676 15.1308L97.273 16.3379C98.3509 17.7618 98.9688 19.9921 98.9688 23.1875H100.969ZM98.8676 15.1308C97.382 13.1683 95.219 12.2266 92.5391 12.2266V14.2266C94.7029 14.2266 96.2274 14.9567 97.273 16.3379L98.8676 15.1308ZM92.5391 12.2266H89.7734V14.2266H92.5391V12.2266ZM111.219 28.0859H110.219V28.0947L110.219 28.1035L111.219 28.0859ZM112.695 21.3359L113.59 21.7832L113.591 21.7803L112.695 21.3359ZM132.406 18.7109L131.673 19.3908L131.675 19.3933L132.406 18.7109ZM132.383 38L131.656 37.3127L131.656 37.3128L132.383 38ZM114.781 38.2344L114.077 38.944L114.079 38.9466L114.781 38.2344ZM111.242 29.4219L110.242 29.4394L110.243 29.4538L110.243 29.4682L111.242 29.4219ZM119.117 28.5781L118.117 28.5617L118.117 28.5699V28.5781H119.117ZM127.789 28.8828L128.789 28.8973L128.789 28.89V28.8828H127.789ZM119.141 27.1484L118.142 27.0927L118.141 27.1124L118.141 27.132L119.141 27.1484ZM112.219 28.0859C112.219 25.6866 112.685 23.5936 113.59 21.7832L111.801 20.8887C110.737 23.0158 110.219 25.4228 110.219 28.0859H112.219ZM113.591 21.7803C114.492 19.965 115.771 18.5919 117.437 17.6321L116.438 15.8992C114.416 17.0644 112.868 18.7381 111.799 20.8915L113.591 21.7803ZM117.437 17.6321C119.105 16.6708 121.091 16.1719 123.43 16.1719V14.1719C120.8 14.1719 118.458 14.7355 116.438 15.8992L117.437 17.6321ZM123.43 16.1719C127.003 16.1719 129.709 17.2724 131.673 19.3908L133.14 18.031C130.729 15.4307 127.45 14.1719 123.43 14.1719V16.1719ZM131.675 19.3933C133.648 21.5068 134.688 24.4341 134.688 28.2969H136.688C136.688 24.0659 135.54 20.6026 133.137 18.0286L131.675 19.3933ZM134.688 28.2969V28.5781H136.688V28.2969H134.688ZM134.688 28.5781C134.688 32.3383 133.645 35.2113 131.656 37.3127L133.109 38.6873C135.527 36.1325 136.688 32.7242 136.688 28.5781H134.688ZM131.656 37.3128C129.691 39.39 127.005 40.4688 123.477 40.4688V42.4688C127.448 42.4688 130.699 41.235 133.109 38.6872L131.656 37.3128ZM123.477 40.4688C120.08 40.4688 117.451 39.462 115.483 37.5222L114.079 38.9466C116.486 41.3193 119.654 42.4688 123.477 42.4688V40.4688ZM115.486 37.5247C113.511 35.5637 112.404 32.882 112.241 29.3755L110.243 29.4682C110.424 33.368 111.677 36.5613 114.077 38.944L115.486 37.5247ZM112.242 29.4043L112.219 28.0684L110.219 28.1035L110.242 29.4394L112.242 29.4043ZM118.117 28.5781C118.117 30.9853 118.487 32.9486 119.389 34.2918L121.049 33.1769C120.482 32.3327 120.117 30.8585 120.117 28.5781H118.117ZM119.389 34.2918C120.328 35.6907 121.742 36.375 123.477 36.375V34.375C122.336 34.375 121.578 33.9656 121.049 33.1769L119.389 34.2918ZM123.477 36.375C125.185 36.375 126.576 35.6926 127.497 34.3053C128.371 32.9891 128.757 31.1387 128.789 28.8973L126.789 28.8684C126.759 30.955 126.394 32.3507 125.831 33.1986C125.315 33.9754 124.581 34.375 123.477 34.375V36.375ZM128.789 28.8828V28.0859H126.789V28.8828H128.789ZM128.789 28.0859C128.789 25.7381 128.42 23.8056 127.542 22.4321C126.615 20.9824 125.193 20.2656 123.43 20.2656V22.2656C124.573 22.2656 125.33 22.6856 125.857 23.5093C126.432 24.4092 126.789 25.8869 126.789 28.0859H128.789ZM123.43 20.2656C121.823 20.2656 120.491 20.8832 119.569 22.1472C118.69 23.3524 118.256 25.0474 118.142 27.0927L120.139 27.2041C120.244 25.3276 120.634 24.0812 121.185 23.3255C121.693 22.6286 122.396 22.2656 123.43 22.2656V20.2656ZM118.141 27.132L118.117 28.5617L120.117 28.5945L120.14 27.1648L118.141 27.132ZM159.711 34.6719H158.711V35.6719H159.711V34.6719ZM174.031 34.6719H175.031V33.6719H174.031V34.6719ZM174.031 41V42H175.031V41H174.031ZM151.484 41H150.484V42H151.484V41ZM151.484 6.875V5.875H150.484V6.875H151.484ZM159.711 6.875H160.711V5.875H159.711V6.875ZM159.711 35.6719H174.031V33.6719H159.711V35.6719ZM173.031 34.6719V41H175.031V34.6719H173.031ZM174.031 40H151.484V42H174.031V40ZM152.484 41V6.875H150.484V41H152.484ZM151.484 7.875H159.711V5.875H151.484V7.875ZM158.711 6.875V34.6719H160.711V6.875H158.711ZM185.469 41V42H186.469V41H185.469ZM177.547 41H176.547V42H177.547V41ZM177.547 15.6406V14.6406H176.547V15.6406H177.547ZM185.469 15.6406H186.469V14.6406H185.469V15.6406ZM185.469 40H177.547V42H185.469V40ZM178.547 41V15.6406H176.547V41H178.547ZM177.547 16.6406H185.469V14.6406H177.547V16.6406ZM184.469 15.6406V41H186.469V15.6406H184.469ZM178.078 9.10156C178.078 8.25094 178.37 7.606 178.959 7.08493L177.634 5.58694C176.598 6.50337 176.078 7.70219 176.078 9.10156H178.078ZM178.959 7.08493C179.555 6.55835 180.358 6.25781 181.461 6.25781V4.25781C179.97 4.25781 178.664 4.67603 177.634 5.58694L178.959 7.08493ZM181.461 6.25781C182.564 6.25781 183.367 6.55835 183.962 7.08493L185.288 5.58694C184.258 4.67603 182.952 4.25781 181.461 4.25781V6.25781ZM183.962 7.08493C184.551 7.606 184.844 8.25094 184.844 9.10156H186.844C186.844 7.70219 186.324 6.50337 185.288 5.58694L183.962 7.08493ZM184.844 9.10156C184.844 9.95219 184.551 10.5971 183.962 11.1182L185.288 12.6162C186.324 11.6998 186.844 10.5009 186.844 9.10156H184.844ZM183.962 11.1182C183.367 11.6448 182.564 11.9453 181.461 11.9453V13.9453C182.952 13.9453 184.258 13.5271 185.288 12.6162L183.962 11.1182ZM181.461 11.9453C180.358 11.9453 179.555 11.6448 178.959 11.1182L177.634 12.6162C178.664 13.5271 179.97 13.9453 181.461 13.9453V11.9453ZM178.959 11.1182C178.37 10.5971 178.078 9.95219 178.078 9.10156H176.078C176.078 10.5009 176.598 11.6998 177.634 12.6162L178.959 11.1182ZM193.695 29.2812L193.206 30.1534L193.214 30.1579L193.695 29.2812ZM192.641 17.4453L193.256 18.2336L193.26 18.2305L192.641 17.4453ZM211.297 23.4219V24.4219H212.297V23.4219H211.297ZM203.375 23.4219H202.375V24.4219H203.375V23.4219ZM198.078 21.0781L198.705 21.8569L198.712 21.8517L198.718 21.8463L198.078 21.0781ZM201.547 25.5781L201.363 26.561L201.364 26.5613L201.547 25.5781ZM205.531 26.5859L205.857 25.6404L205.855 25.6399L205.531 26.5859ZM208.156 39.2891L207.58 38.4716L207.577 38.4737L208.156 39.2891ZM188.961 32.8672V31.8672H187.961V32.8672H188.961ZM196.344 32.8672L197.343 32.8405L197.317 31.8672H196.344V32.8672ZM197.516 35.4453L196.926 36.2534L196.938 36.2613L197.516 35.4453ZM202.812 35.5859L202.188 34.8051L202.182 34.8095L202.177 34.814L202.812 35.5859ZM204.633 33.875C204.633 32.7661 204.015 31.933 203.078 31.3919L202.078 33.1237C202.548 33.3952 202.633 33.6401 202.633 33.875H204.633ZM203.078 31.3919C202.227 30.9 200.751 30.4524 198.787 30.016L198.353 31.9684C200.327 32.407 201.523 32.8032 202.078 33.1237L203.078 31.3919ZM198.787 30.016C196.879 29.5918 195.35 29.0486 194.176 28.4046L193.214 30.1579C194.603 30.9201 196.325 31.5175 198.353 31.9684L198.787 30.016ZM194.185 28.4091C193.014 27.7523 192.167 26.9862 191.6 26.128L189.932 27.2314C190.708 28.4045 191.814 29.3727 193.206 30.1534L194.185 28.4091ZM191.6 26.128C191.045 25.2888 190.758 24.3198 190.758 23.1875H188.758C188.758 24.6802 189.143 26.0393 189.932 27.2314L191.6 26.128ZM190.758 23.1875C190.758 21.1839 191.564 19.5545 193.256 18.2336L192.025 16.657C189.874 18.3361 188.758 20.5349 188.758 23.1875H190.758ZM193.26 18.2305C194.962 16.8879 197.241 16.1719 200.188 16.1719V14.1719C196.915 14.1719 194.163 14.9714 192.021 16.6601L193.26 18.2305ZM200.188 16.1719C203.384 16.1719 205.841 16.8958 207.652 18.2468L208.848 16.6438C206.596 14.9636 203.678 14.1719 200.188 14.1719V16.1719ZM207.652 18.2468C209.438 19.5796 210.297 21.2785 210.297 23.4219H212.297C212.297 20.6278 211.124 18.3423 208.848 16.6438L207.652 18.2468ZM211.297 22.4219H203.375V24.4219H211.297V22.4219ZM204.375 23.4219C204.375 22.2383 204.061 21.1704 203.261 20.4113C202.47 19.6615 201.376 19.375 200.164 19.375V21.375C201.093 21.375 201.604 21.5963 201.884 21.8621C202.154 22.1186 202.375 22.5742 202.375 23.4219H204.375ZM200.164 19.375C199.135 19.375 198.204 19.6718 197.438 20.3099L198.718 21.8463C199.078 21.5469 199.537 21.375 200.164 21.375V19.375ZM197.451 20.2994C196.666 20.9312 196.234 21.7817 196.234 22.7891H198.234C198.234 22.4214 198.365 22.1313 198.705 21.8569L197.451 20.2994ZM196.234 22.7891C196.234 23.8933 196.807 24.7568 197.729 25.3437L198.803 23.6563C198.35 23.3682 198.234 23.0911 198.234 22.7891H196.234ZM197.729 25.3437C198.581 25.8858 199.827 26.2731 201.363 26.561L201.731 24.5953C200.266 24.3206 199.326 23.9892 198.803 23.6563L197.729 25.3437ZM201.364 26.5613C202.845 26.836 204.123 27.1608 205.207 27.532L205.855 25.6399C204.658 25.2298 203.28 24.8828 201.729 24.5949L201.364 26.5613ZM205.206 27.5315C206.992 28.1465 208.241 28.9742 209.043 29.9637C209.835 30.9399 210.25 32.1454 210.25 33.6406H212.25C212.25 31.7452 211.712 30.0796 210.597 28.7043C209.493 27.3423 207.883 26.3379 205.857 25.6404L205.206 27.5315ZM210.25 33.6406C210.25 35.5947 209.405 37.1858 207.58 38.4716L208.732 40.1065C211.032 38.4861 212.25 36.3115 212.25 33.6406H210.25ZM207.577 38.4737C205.744 39.7751 203.308 40.4688 200.188 40.4688V42.4688C203.598 42.4688 206.475 41.7092 208.735 40.1045L207.577 38.4737ZM200.188 40.4688C198.137 40.4688 196.345 40.1004 194.792 39.3879L193.958 41.2058C195.811 42.0559 197.894 42.4688 200.188 42.4688V40.4688ZM194.792 39.3879C193.226 38.6697 192.044 37.7126 191.206 36.5308L189.575 37.6879C190.643 39.1937 192.118 40.3616 193.958 41.2058L194.792 39.3879ZM191.206 36.5308C190.359 35.3367 189.961 34.1217 189.961 32.8672H187.961C187.961 34.5815 188.516 36.1945 189.575 37.6879L191.206 36.5308ZM188.961 33.8672H196.344V31.8672H188.961V33.8672ZM195.344 32.8938C195.381 34.2861 195.861 35.4767 196.926 36.2533L198.105 34.6373C197.67 34.3202 197.369 33.7921 197.343 32.8405L195.344 32.8938ZM196.938 36.2613C197.898 36.9415 199.077 37.2422 200.398 37.2422V35.2422C199.377 35.2422 198.633 35.0116 198.094 34.6293L196.938 36.2613ZM200.398 37.2422C201.584 37.2422 202.661 37.0061 203.448 36.3579L202.177 34.814C201.901 35.0408 201.369 35.2422 200.398 35.2422V37.2422ZM203.437 36.3668C204.222 35.7387 204.633 34.8805 204.633 33.875H202.633C202.633 34.2758 202.496 34.5582 202.188 34.8051L203.437 36.3668ZM224.164 9.33594H225.164V8.33594H224.164V9.33594ZM224.164 15.6406H223.164V16.6406H224.164V15.6406ZM228.336 15.6406H229.336V14.6406H228.336V15.6406ZM228.336 21.125V22.125H229.336V21.125H228.336ZM224.164 21.125V20.125H223.164V21.125H224.164ZM228.688 35.1406H229.688V33.9487L228.514 34.1558L228.688 35.1406ZM228.688 40.7891L228.991 41.7419L229.688 41.5199V40.7891H228.688ZM216.266 21.125H217.266V20.125H216.266V21.125ZM213.031 21.125H212.031V22.125H213.031V21.125ZM213.031 15.6406V14.6406H212.031V15.6406H213.031ZM216.266 15.6406V16.6406H217.266V15.6406H216.266ZM216.266 9.33594V8.33594H215.266V9.33594H216.266ZM223.164 9.33594V15.6406H225.164V9.33594H223.164ZM224.164 16.6406H228.336V14.6406H224.164V16.6406ZM227.336 15.6406V21.125H229.336V15.6406H227.336ZM228.336 20.125H224.164V22.125H228.336V20.125ZM223.164 21.125V32.7266H225.164V21.125H223.164ZM223.164 32.7266C223.164 33.7364 223.333 34.73 223.943 35.3945L225.417 34.043C225.338 33.9575 225.164 33.623 225.164 32.7266H223.164ZM223.943 35.3945C224.595 36.1058 225.669 36.2812 226.719 36.2812V34.2812C225.738 34.2812 225.452 34.0817 225.417 34.043L223.943 35.3945ZM226.719 36.2812C227.535 36.2812 228.253 36.2327 228.861 36.1254L228.514 34.1558C228.059 34.2361 227.465 34.2812 226.719 34.2812V36.2812ZM227.688 35.1406V40.7891H229.688V35.1406H227.688ZM228.384 39.8363C227.064 40.257 225.682 40.4688 224.234 40.4688V42.4688C225.88 42.4688 227.468 42.2274 228.991 41.7419L228.384 39.8363ZM224.234 40.4688C221.651 40.4688 219.949 39.8581 218.914 38.8355L217.508 40.2583C219.067 41.7982 221.38 42.4688 224.234 42.4688V40.4688ZM218.914 38.8355C217.876 37.8105 217.266 36.1693 217.266 33.7109H215.266C215.266 36.4714 215.952 38.7207 217.508 40.2583L218.914 38.8355ZM217.266 33.7109V21.125H215.266V33.7109H217.266ZM216.266 20.125H213.031V22.125H216.266V20.125ZM214.031 21.125V15.6406H212.031V21.125H214.031ZM213.031 16.6406H216.266V14.6406H213.031V16.6406ZM217.266 15.6406V9.33594H215.266V15.6406H217.266ZM216.266 10.3359H224.164V8.33594H216.266V10.3359Z" fill="#E0E0E0"/>
</g>
<defs>
<filter id="filter0_d" x="0.84375" y="0.257812" width="242.844" height="56.2109" filterUnits="userSpaceOnUse" color-interpolation-filters="sRGB">
<feFlood flood-opacity="0" result="BackgroundImageFix"/>
<feColorMatrix in="SourceAlpha" type="matrix" values="0 0 0 0 0 0 0 0 0 0 0 0 0 0 0 0 0 0 127 0"/>
<feOffset dx="5" dy="5"/>
<feGaussianBlur stdDeviation="5"/>
<feColorMatrix type="matrix" values="0 0 0 0 0 0 0 0 0 0 0 0 0 0 0 0 0 0 0.1 0"/>
<feBlend mode="normal" in2="BackgroundImageFix" result="effect1_dropShadow"/>
<feBlend mode="normal" in="SourceGraphic" in2="effect1_dropShadow" result="shape"/>
</filter>
</defs>
</svg>
