<svg width="30" height="30" viewBox="0 0 30 30" fill="none" xmlns="http://www.w3.org/2000/svg">
<path d="M22.2 22.8H7.8C6.78 22.8 6 22.02 6 21V7.8C6 6.78 6.66 6 7.5 6H8.4V7.2H7.5C7.38 7.2 7.2 7.44 7.2 7.8V21C7.2 21.36 7.44 21.6 7.8 21.6H22.2C22.56 21.6 22.8 21.36 22.8 21V7.8C22.8 7.44 22.62 7.2 22.5 7.2H21.6V6H22.5C23.34 6 24 6.78 24 7.8V21C24 22.02 23.22 22.8 22.2 22.8Z" fill="black"/>
<path d="M10.2001 8.4C9.8401 8.4 9.6001 8.16 9.6001 7.8V5.4C9.6001 5.04 9.8401 4.8 10.2001 4.8C10.5601 4.8 10.8001 5.04 10.8001 5.4V7.8C10.8001 8.16 10.5601 8.4 10.2001 8.4Z" fill="black"/>
<path d="M19.8 8.4C19.44 8.4 19.2 8.16 19.2 7.8V5.4C19.2 5.04 19.44 4.8 19.8 4.8C20.16 4.8 20.4 5.04 20.4 5.4V7.8C20.4 8.16 20.16 8.4 19.8 8.4Z" fill="black"/>
<path d="M12 6H18V7.2H12V6Z" fill="black"/>
<path d="M7.19995 9.6H22.8V10.8H7.19995V9.6Z" fill="black"/>
<path d="M20.3999 12H21.5999V13.2H20.3999V12Z" fill="black"/>
<path d="M18 12H19.2V13.2H18V12Z" fill="black"/>
<path d="M15.6001 12H16.8001V13.2H15.6001V12Z" fill="black"/>
<path d="M13.2 12H14.4V13.2H13.2V12Z" fill="black"/>
<path d="M10.8 12H12V13.2H10.8V12Z" fill="black"/>
<path d="M20.3999 14.4H21.5999V15.6H20.3999V14.4Z" fill="black"/>
<path d="M18 14.4H19.2V15.6H18V14.4Z" fill="black"/>
<path d="M15.6001 14.4H16.8001V15.6H15.6001V14.4Z" fill="black"/>
<path d="M13.2 14.4H14.4V15.6H13.2V14.4Z" fill="black"/>
<path d="M10.8 14.4H12V15.6H10.8V14.4Z" fill="black"/>
<path d="M8.3999 14.4H9.5999V15.6H8.3999V14.4Z" fill="black"/>
<path d="M20.3999 16.8H21.5999V18H20.3999V16.8Z" fill="black"/>
<path d="M18 16.8H19.2V18H18V16.8Z" fill="black"/>
<path d="M15.6001 16.8H16.8001V18H15.6001V16.8Z" fill="black"/>
<path d="M13.2 16.8H14.4V18H13.2V16.8Z" fill="black"/>
<path d="M10.8 16.8H12V18H10.8V16.8Z" fill="black"/>
<path d="M8.3999 16.8H9.5999V18H8.3999V16.8Z" fill="black"/>
<path d="M18 19.2H19.2V20.4H18V19.2Z" fill="black"/>
<path d="M15.6001 19.2H16.8001V20.4H15.6001V19.2Z" fill="black"/>
<path d="M13.2 19.2H14.4V20.4H13.2V19.2Z" fill="black"/>
<path d="M10.8 19.2H12V20.4H10.8V19.2Z" fill="black"/>
<path d="M8.3999 19.2H9.5999V20.4H8.3999V19.2Z" fill="black"/>
</svg>
